<mxfile host="app.diagrams.net" agent="Mozilla/5.0 (Windows NT 10.0; Win64; x64) AppleWebKit/537.36 (KHTML, like Gecko) Chrome/136.0.0.0 Safari/537.36" version="27.0.6">
  <diagram name="Page-1" id="TDUS7w3QfmYIiudH2G_V">
    <mxGraphModel>
      <root>
        <mxCell id="0" />
        <mxCell id="1" parent="0" />
        <mxCell id="2" value="CLIENTE" style="shape=table;startSize=25;container=1;collapsible=0;childLayout=tableLayout;fixedRows=1;rowLines=1;fontStyle=1;align=center;resizeLast=1;" vertex="1" parent="1">
          <mxGeometry x="53" y="8" width="255" height="256" as="geometry" />
        </mxCell>
        <mxCell id="3" style="shape=tableRow;horizontal=0;startSize=0;swimlaneHead=0;swimlaneBody=0;fillColor=none;collapsible=0;dropTarget=0;points=[[0,0.5],[1,0.5]];portConstraint=eastwest;top=0;left=0;right=0;bottom=0;" vertex="1" parent="2">
          <mxGeometry y="46" width="255" height="46" as="geometry" />
        </mxCell>
        <mxCell id="4" value="int" style="shape=partialRectangle;connectable=0;fillColor=none;top=0;left=0;bottom=0;right=0;align=left;spacingLeft=2;overflow=hidden;fontSize=11;" vertex="1" parent="3">
          <mxGeometry width="36" height="46" as="geometry" />
        </mxCell>
        <mxCell id="5" value="idCliente" style="shape=partialRectangle;connectable=0;fillColor=none;top=0;left=0;bottom=0;right=0;align=left;spacingLeft=2;overflow=hidden;fontSize=11;" vertex="1" parent="3">
          <mxGeometry width="197" height="46" as="geometry" />
        </mxCell>
        <mxCell id="6" value="PK" style="shape=partialRectangle;connectable=0;fillColor=none;top=0;left=0;bottom=0;right=0;align=left;spacingLeft=2;overflow=hidden;fontSize=11;" vertex="1" parent="3">
          <mxGeometry width="22" height="46" as="geometry" />
        </mxCell>
        <mxCell id="7" style="shape=tableRow;horizontal=0;startSize=0;swimlaneHead=0;swimlaneBody=0;fillColor=none;collapsible=0;dropTarget=0;points=[[0,0.5],[1,0.5]];portConstraint=eastwest;top=0;left=0;right=0;bottom=0;" vertex="1" parent="2">
          <mxGeometry y="93" width="255" height="46" as="geometry" />
        </mxCell>
        <mxCell id="8" value="string" style="shape=partialRectangle;connectable=0;fillColor=none;top=0;left=0;bottom=0;right=0;align=left;spacingLeft=2;overflow=hidden;fontSize=11;" vertex="1" parent="7">
          <mxGeometry width="36" height="46" as="geometry" />
        </mxCell>
        <mxCell id="9" value="dniCliente" style="shape=partialRectangle;connectable=0;fillColor=none;top=0;left=0;bottom=0;right=0;align=left;spacingLeft=2;overflow=hidden;fontSize=11;" vertex="1" parent="7">
          <mxGeometry width="197" height="46" as="geometry" />
        </mxCell>
        <mxCell id="10" value="" style="shape=partialRectangle;connectable=0;fillColor=none;top=0;left=0;bottom=0;right=0;align=left;spacingLeft=2;overflow=hidden;fontSize=11;" vertex="1" parent="7">
          <mxGeometry width="22" height="46" as="geometry" />
        </mxCell>
        <mxCell id="11" style="shape=tableRow;horizontal=0;startSize=0;swimlaneHead=0;swimlaneBody=0;fillColor=none;collapsible=0;dropTarget=0;points=[[0,0.5],[1,0.5]];portConstraint=eastwest;top=0;left=0;right=0;bottom=0;" vertex="1" parent="2">
          <mxGeometry y="139" width="255" height="46" as="geometry" />
        </mxCell>
        <mxCell id="12" value="string" style="shape=partialRectangle;connectable=0;fillColor=none;top=0;left=0;bottom=0;right=0;align=left;spacingLeft=2;overflow=hidden;fontSize=11;" vertex="1" parent="11">
          <mxGeometry width="36" height="46" as="geometry" />
        </mxCell>
        <mxCell id="13" value="nombre" style="shape=partialRectangle;connectable=0;fillColor=none;top=0;left=0;bottom=0;right=0;align=left;spacingLeft=2;overflow=hidden;fontSize=11;" vertex="1" parent="11">
          <mxGeometry width="197" height="46" as="geometry" />
        </mxCell>
        <mxCell id="14" value="" style="shape=partialRectangle;connectable=0;fillColor=none;top=0;left=0;bottom=0;right=0;align=left;spacingLeft=2;overflow=hidden;fontSize=11;" vertex="1" parent="11">
          <mxGeometry width="22" height="46" as="geometry" />
        </mxCell>
        <mxCell id="15" style="shape=tableRow;horizontal=0;startSize=0;swimlaneHead=0;swimlaneBody=0;fillColor=none;collapsible=0;dropTarget=0;points=[[0,0.5],[1,0.5]];portConstraint=eastwest;top=0;left=0;right=0;bottom=0;" vertex="1" parent="2">
          <mxGeometry y="185" width="255" height="46" as="geometry" />
        </mxCell>
        <mxCell id="16" value="date" style="shape=partialRectangle;connectable=0;fillColor=none;top=0;left=0;bottom=0;right=0;align=left;spacingLeft=2;overflow=hidden;fontSize=11;" vertex="1" parent="15">
          <mxGeometry width="36" height="46" as="geometry" />
        </mxCell>
        <mxCell id="17" value="fechaNacimiento" style="shape=partialRectangle;connectable=0;fillColor=none;top=0;left=0;bottom=0;right=0;align=left;spacingLeft=2;overflow=hidden;fontSize=11;" vertex="1" parent="15">
          <mxGeometry width="197" height="46" as="geometry" />
        </mxCell>
        <mxCell id="18" value="" style="shape=partialRectangle;connectable=0;fillColor=none;top=0;left=0;bottom=0;right=0;align=left;spacingLeft=2;overflow=hidden;fontSize=11;" vertex="1" parent="15">
          <mxGeometry width="22" height="46" as="geometry" />
        </mxCell>
        <mxCell id="19" style="shape=tableRow;horizontal=0;startSize=0;swimlaneHead=0;swimlaneBody=0;fillColor=none;collapsible=0;dropTarget=0;points=[[0,0.5],[1,0.5]];portConstraint=eastwest;top=0;left=0;right=0;bottom=0;" vertex="1" parent="2">
          <mxGeometry y="231" width="255" height="46" as="geometry" />
        </mxCell>
        <mxCell id="20" value="string" style="shape=partialRectangle;connectable=0;fillColor=none;top=0;left=0;bottom=0;right=0;align=left;spacingLeft=2;overflow=hidden;fontSize=11;" vertex="1" parent="19">
          <mxGeometry width="36" height="46" as="geometry" />
        </mxCell>
        <mxCell id="21" value="direcciÃ³n" style="shape=partialRectangle;connectable=0;fillColor=none;top=0;left=0;bottom=0;right=0;align=left;spacingLeft=2;overflow=hidden;fontSize=11;" vertex="1" parent="19">
          <mxGeometry width="197" height="46" as="geometry" />
        </mxCell>
        <mxCell id="22" value="" style="shape=partialRectangle;connectable=0;fillColor=none;top=0;left=0;bottom=0;right=0;align=left;spacingLeft=2;overflow=hidden;fontSize=11;" vertex="1" parent="19">
          <mxGeometry width="22" height="46" as="geometry" />
        </mxCell>
        <mxCell id="23" value="TARJETA" style="shape=table;startSize=25;container=1;collapsible=0;childLayout=tableLayout;fixedRows=1;rowLines=1;fontStyle=1;align=center;resizeLast=1;" vertex="1" parent="1">
          <mxGeometry x="8" y="388" width="262" height="171" as="geometry" />
        </mxCell>
        <mxCell id="24" style="shape=tableRow;horizontal=0;startSize=0;swimlaneHead=0;swimlaneBody=0;fillColor=none;collapsible=0;dropTarget=0;points=[[0,0.5],[1,0.5]];portConstraint=eastwest;top=0;left=0;right=0;bottom=0;" vertex="1" parent="23">
          <mxGeometry y="49" width="262" height="49" as="geometry" />
        </mxCell>
        <mxCell id="25" value="int" style="shape=partialRectangle;connectable=0;fillColor=none;top=0;left=0;bottom=0;right=0;align=left;spacingLeft=2;overflow=hidden;fontSize=11;" vertex="1" parent="24">
          <mxGeometry width="36" height="49" as="geometry" />
        </mxCell>
        <mxCell id="26" value="idTarjeta" style="shape=partialRectangle;connectable=0;fillColor=none;top=0;left=0;bottom=0;right=0;align=left;spacingLeft=2;overflow=hidden;fontSize=11;" vertex="1" parent="24">
          <mxGeometry width="204" height="49" as="geometry" />
        </mxCell>
        <mxCell id="27" value="PK" style="shape=partialRectangle;connectable=0;fillColor=none;top=0;left=0;bottom=0;right=0;align=left;spacingLeft=2;overflow=hidden;fontSize=11;" vertex="1" parent="24">
          <mxGeometry width="22" height="49" as="geometry" />
        </mxCell>
        <mxCell id="28" style="shape=tableRow;horizontal=0;startSize=0;swimlaneHead=0;swimlaneBody=0;fillColor=none;collapsible=0;dropTarget=0;points=[[0,0.5],[1,0.5]];portConstraint=eastwest;top=0;left=0;right=0;bottom=0;" vertex="1" parent="23">
          <mxGeometry y="97" width="262" height="49" as="geometry" />
        </mxCell>
        <mxCell id="29" value="string" style="shape=partialRectangle;connectable=0;fillColor=none;top=0;left=0;bottom=0;right=0;align=left;spacingLeft=2;overflow=hidden;fontSize=11;" vertex="1" parent="28">
          <mxGeometry width="36" height="49" as="geometry" />
        </mxCell>
        <mxCell id="30" value="nombre" style="shape=partialRectangle;connectable=0;fillColor=none;top=0;left=0;bottom=0;right=0;align=left;spacingLeft=2;overflow=hidden;fontSize=11;" vertex="1" parent="28">
          <mxGeometry width="204" height="49" as="geometry" />
        </mxCell>
        <mxCell id="31" value="" style="shape=partialRectangle;connectable=0;fillColor=none;top=0;left=0;bottom=0;right=0;align=left;spacingLeft=2;overflow=hidden;fontSize=11;" vertex="1" parent="28">
          <mxGeometry width="22" height="49" as="geometry" />
        </mxCell>
        <mxCell id="32" style="shape=tableRow;horizontal=0;startSize=0;swimlaneHead=0;swimlaneBody=0;fillColor=none;collapsible=0;dropTarget=0;points=[[0,0.5],[1,0.5]];portConstraint=eastwest;top=0;left=0;right=0;bottom=0;" vertex="1" parent="23">
          <mxGeometry y="146" width="262" height="49" as="geometry" />
        </mxCell>
        <mxCell id="33" value="date" style="shape=partialRectangle;connectable=0;fillColor=none;top=0;left=0;bottom=0;right=0;align=left;spacingLeft=2;overflow=hidden;fontSize=11;" vertex="1" parent="32">
          <mxGeometry width="36" height="49" as="geometry" />
        </mxCell>
        <mxCell id="34" value="fechaVencimiento" style="shape=partialRectangle;connectable=0;fillColor=none;top=0;left=0;bottom=0;right=0;align=left;spacingLeft=2;overflow=hidden;fontSize=11;" vertex="1" parent="32">
          <mxGeometry width="204" height="49" as="geometry" />
        </mxCell>
        <mxCell id="35" value="" style="shape=partialRectangle;connectable=0;fillColor=none;top=0;left=0;bottom=0;right=0;align=left;spacingLeft=2;overflow=hidden;fontSize=11;" vertex="1" parent="32">
          <mxGeometry width="22" height="49" as="geometry" />
        </mxCell>
        <mxCell id="36" value="SUCURSAL" style="shape=table;startSize=25;container=1;collapsible=0;childLayout=tableLayout;fixedRows=1;rowLines=1;fontStyle=1;align=center;resizeLast=1;" vertex="1" parent="1">
          <mxGeometry x="591" y="51" width="206" height="171" as="geometry" />
        </mxCell>
        <mxCell id="37" style="shape=tableRow;horizontal=0;startSize=0;swimlaneHead=0;swimlaneBody=0;fillColor=none;collapsible=0;dropTarget=0;points=[[0,0.5],[1,0.5]];portConstraint=eastwest;top=0;left=0;right=0;bottom=0;" vertex="1" parent="36">
          <mxGeometry y="49" width="206" height="49" as="geometry" />
        </mxCell>
        <mxCell id="38" value="int" style="shape=partialRectangle;connectable=0;fillColor=none;top=0;left=0;bottom=0;right=0;align=left;spacingLeft=2;overflow=hidden;fontSize=11;" vertex="1" parent="37">
          <mxGeometry width="36" height="49" as="geometry" />
        </mxCell>
        <mxCell id="39" value="idSucursal" style="shape=partialRectangle;connectable=0;fillColor=none;top=0;left=0;bottom=0;right=0;align=left;spacingLeft=2;overflow=hidden;fontSize=11;" vertex="1" parent="37">
          <mxGeometry width="148" height="49" as="geometry" />
        </mxCell>
        <mxCell id="40" value="PK" style="shape=partialRectangle;connectable=0;fillColor=none;top=0;left=0;bottom=0;right=0;align=left;spacingLeft=2;overflow=hidden;fontSize=11;" vertex="1" parent="37">
          <mxGeometry width="22" height="49" as="geometry" />
        </mxCell>
        <mxCell id="41" style="shape=tableRow;horizontal=0;startSize=0;swimlaneHead=0;swimlaneBody=0;fillColor=none;collapsible=0;dropTarget=0;points=[[0,0.5],[1,0.5]];portConstraint=eastwest;top=0;left=0;right=0;bottom=0;" vertex="1" parent="36">
          <mxGeometry y="97" width="206" height="49" as="geometry" />
        </mxCell>
        <mxCell id="42" value="string" style="shape=partialRectangle;connectable=0;fillColor=none;top=0;left=0;bottom=0;right=0;align=left;spacingLeft=2;overflow=hidden;fontSize=11;" vertex="1" parent="41">
          <mxGeometry width="36" height="49" as="geometry" />
        </mxCell>
        <mxCell id="43" value="ciudad" style="shape=partialRectangle;connectable=0;fillColor=none;top=0;left=0;bottom=0;right=0;align=left;spacingLeft=2;overflow=hidden;fontSize=11;" vertex="1" parent="41">
          <mxGeometry width="148" height="49" as="geometry" />
        </mxCell>
        <mxCell id="44" value="" style="shape=partialRectangle;connectable=0;fillColor=none;top=0;left=0;bottom=0;right=0;align=left;spacingLeft=2;overflow=hidden;fontSize=11;" vertex="1" parent="41">
          <mxGeometry width="22" height="49" as="geometry" />
        </mxCell>
        <mxCell id="45" style="shape=tableRow;horizontal=0;startSize=0;swimlaneHead=0;swimlaneBody=0;fillColor=none;collapsible=0;dropTarget=0;points=[[0,0.5],[1,0.5]];portConstraint=eastwest;top=0;left=0;right=0;bottom=0;" vertex="1" parent="36">
          <mxGeometry y="146" width="206" height="49" as="geometry" />
        </mxCell>
        <mxCell id="46" value="string" style="shape=partialRectangle;connectable=0;fillColor=none;top=0;left=0;bottom=0;right=0;align=left;spacingLeft=2;overflow=hidden;fontSize=11;" vertex="1" parent="45">
          <mxGeometry width="36" height="49" as="geometry" />
        </mxCell>
        <mxCell id="47" value="direcciÃ³n" style="shape=partialRectangle;connectable=0;fillColor=none;top=0;left=0;bottom=0;right=0;align=left;spacingLeft=2;overflow=hidden;fontSize=11;" vertex="1" parent="45">
          <mxGeometry width="148" height="49" as="geometry" />
        </mxCell>
        <mxCell id="48" value="" style="shape=partialRectangle;connectable=0;fillColor=none;top=0;left=0;bottom=0;right=0;align=left;spacingLeft=2;overflow=hidden;fontSize=11;" vertex="1" parent="45">
          <mxGeometry width="22" height="49" as="geometry" />
        </mxCell>
        <mxCell id="49" value="EMPLEADO" style="shape=table;startSize=25;container=1;collapsible=0;childLayout=tableLayout;fixedRows=1;rowLines=1;fontStyle=1;align=center;resizeLast=1;" vertex="1" parent="1">
          <mxGeometry x="971" y="367" width="217" height="214" as="geometry" />
        </mxCell>
        <mxCell id="50" style="shape=tableRow;horizontal=0;startSize=0;swimlaneHead=0;swimlaneBody=0;fillColor=none;collapsible=0;dropTarget=0;points=[[0,0.5],[1,0.5]];portConstraint=eastwest;top=0;left=0;right=0;bottom=0;" vertex="1" parent="49">
          <mxGeometry y="47" width="217" height="47" as="geometry" />
        </mxCell>
        <mxCell id="51" value="int" style="shape=partialRectangle;connectable=0;fillColor=none;top=0;left=0;bottom=0;right=0;align=left;spacingLeft=2;overflow=hidden;fontSize=11;" vertex="1" parent="50">
          <mxGeometry width="36" height="47" as="geometry" />
        </mxCell>
        <mxCell id="52" value="idEmpleado" style="shape=partialRectangle;connectable=0;fillColor=none;top=0;left=0;bottom=0;right=0;align=left;spacingLeft=2;overflow=hidden;fontSize=11;" vertex="1" parent="50">
          <mxGeometry width="159" height="47" as="geometry" />
        </mxCell>
        <mxCell id="53" value="PK" style="shape=partialRectangle;connectable=0;fillColor=none;top=0;left=0;bottom=0;right=0;align=left;spacingLeft=2;overflow=hidden;fontSize=11;" vertex="1" parent="50">
          <mxGeometry width="22" height="47" as="geometry" />
        </mxCell>
        <mxCell id="54" style="shape=tableRow;horizontal=0;startSize=0;swimlaneHead=0;swimlaneBody=0;fillColor=none;collapsible=0;dropTarget=0;points=[[0,0.5],[1,0.5]];portConstraint=eastwest;top=0;left=0;right=0;bottom=0;" vertex="1" parent="49">
          <mxGeometry y="94" width="217" height="47" as="geometry" />
        </mxCell>
        <mxCell id="55" value="string" style="shape=partialRectangle;connectable=0;fillColor=none;top=0;left=0;bottom=0;right=0;align=left;spacingLeft=2;overflow=hidden;fontSize=11;" vertex="1" parent="54">
          <mxGeometry width="36" height="47" as="geometry" />
        </mxCell>
        <mxCell id="56" value="nombre" style="shape=partialRectangle;connectable=0;fillColor=none;top=0;left=0;bottom=0;right=0;align=left;spacingLeft=2;overflow=hidden;fontSize=11;" vertex="1" parent="54">
          <mxGeometry width="159" height="47" as="geometry" />
        </mxCell>
        <mxCell id="57" value="" style="shape=partialRectangle;connectable=0;fillColor=none;top=0;left=0;bottom=0;right=0;align=left;spacingLeft=2;overflow=hidden;fontSize=11;" vertex="1" parent="54">
          <mxGeometry width="22" height="47" as="geometry" />
        </mxCell>
        <mxCell id="58" style="shape=tableRow;horizontal=0;startSize=0;swimlaneHead=0;swimlaneBody=0;fillColor=none;collapsible=0;dropTarget=0;points=[[0,0.5],[1,0.5]];portConstraint=eastwest;top=0;left=0;right=0;bottom=0;" vertex="1" parent="49">
          <mxGeometry y="142" width="217" height="47" as="geometry" />
        </mxCell>
        <mxCell id="59" value="string" style="shape=partialRectangle;connectable=0;fillColor=none;top=0;left=0;bottom=0;right=0;align=left;spacingLeft=2;overflow=hidden;fontSize=11;" vertex="1" parent="58">
          <mxGeometry width="36" height="47" as="geometry" />
        </mxCell>
        <mxCell id="60" value="apellido" style="shape=partialRectangle;connectable=0;fillColor=none;top=0;left=0;bottom=0;right=0;align=left;spacingLeft=2;overflow=hidden;fontSize=11;" vertex="1" parent="58">
          <mxGeometry width="159" height="47" as="geometry" />
        </mxCell>
        <mxCell id="61" value="" style="shape=partialRectangle;connectable=0;fillColor=none;top=0;left=0;bottom=0;right=0;align=left;spacingLeft=2;overflow=hidden;fontSize=11;" vertex="1" parent="58">
          <mxGeometry width="22" height="47" as="geometry" />
        </mxCell>
        <mxCell id="62" style="shape=tableRow;horizontal=0;startSize=0;swimlaneHead=0;swimlaneBody=0;fillColor=none;collapsible=0;dropTarget=0;points=[[0,0.5],[1,0.5]];portConstraint=eastwest;top=0;left=0;right=0;bottom=0;" vertex="1" parent="49">
          <mxGeometry y="189" width="217" height="47" as="geometry" />
        </mxCell>
        <mxCell id="63" value="string" style="shape=partialRectangle;connectable=0;fillColor=none;top=0;left=0;bottom=0;right=0;align=left;spacingLeft=2;overflow=hidden;fontSize=11;" vertex="1" parent="62">
          <mxGeometry width="36" height="47" as="geometry" />
        </mxCell>
        <mxCell id="64" value="telÃ©fono" style="shape=partialRectangle;connectable=0;fillColor=none;top=0;left=0;bottom=0;right=0;align=left;spacingLeft=2;overflow=hidden;fontSize=11;" vertex="1" parent="62">
          <mxGeometry width="159" height="47" as="geometry" />
        </mxCell>
        <mxCell id="65" value="" style="shape=partialRectangle;connectable=0;fillColor=none;top=0;left=0;bottom=0;right=0;align=left;spacingLeft=2;overflow=hidden;fontSize=11;" vertex="1" parent="62">
          <mxGeometry width="22" height="47" as="geometry" />
        </mxCell>
        <mxCell id="66" value="PRODUCTO" style="shape=table;startSize=25;container=1;collapsible=0;childLayout=tableLayout;fixedRows=1;rowLines=1;fontStyle=1;align=center;resizeLast=1;" vertex="1" parent="1">
          <mxGeometry x="541" y="367" width="215" height="214" as="geometry" />
        </mxCell>
        <mxCell id="67" style="shape=tableRow;horizontal=0;startSize=0;swimlaneHead=0;swimlaneBody=0;fillColor=none;collapsible=0;dropTarget=0;points=[[0,0.5],[1,0.5]];portConstraint=eastwest;top=0;left=0;right=0;bottom=0;" vertex="1" parent="66">
          <mxGeometry y="47" width="215" height="47" as="geometry" />
        </mxCell>
        <mxCell id="68" value="int" style="shape=partialRectangle;connectable=0;fillColor=none;top=0;left=0;bottom=0;right=0;align=left;spacingLeft=2;overflow=hidden;fontSize=11;" vertex="1" parent="67">
          <mxGeometry width="36" height="47" as="geometry" />
        </mxCell>
        <mxCell id="69" value="idProducto" style="shape=partialRectangle;connectable=0;fillColor=none;top=0;left=0;bottom=0;right=0;align=left;spacingLeft=2;overflow=hidden;fontSize=11;" vertex="1" parent="67">
          <mxGeometry width="157" height="47" as="geometry" />
        </mxCell>
        <mxCell id="70" value="PK" style="shape=partialRectangle;connectable=0;fillColor=none;top=0;left=0;bottom=0;right=0;align=left;spacingLeft=2;overflow=hidden;fontSize=11;" vertex="1" parent="67">
          <mxGeometry width="22" height="47" as="geometry" />
        </mxCell>
        <mxCell id="71" style="shape=tableRow;horizontal=0;startSize=0;swimlaneHead=0;swimlaneBody=0;fillColor=none;collapsible=0;dropTarget=0;points=[[0,0.5],[1,0.5]];portConstraint=eastwest;top=0;left=0;right=0;bottom=0;" vertex="1" parent="66">
          <mxGeometry y="94" width="215" height="47" as="geometry" />
        </mxCell>
        <mxCell id="72" value="string" style="shape=partialRectangle;connectable=0;fillColor=none;top=0;left=0;bottom=0;right=0;align=left;spacingLeft=2;overflow=hidden;fontSize=11;" vertex="1" parent="71">
          <mxGeometry width="36" height="47" as="geometry" />
        </mxCell>
        <mxCell id="73" value="descripciÃ³n" style="shape=partialRectangle;connectable=0;fillColor=none;top=0;left=0;bottom=0;right=0;align=left;spacingLeft=2;overflow=hidden;fontSize=11;" vertex="1" parent="71">
          <mxGeometry width="157" height="47" as="geometry" />
        </mxCell>
        <mxCell id="74" value="" style="shape=partialRectangle;connectable=0;fillColor=none;top=0;left=0;bottom=0;right=0;align=left;spacingLeft=2;overflow=hidden;fontSize=11;" vertex="1" parent="71">
          <mxGeometry width="22" height="47" as="geometry" />
        </mxCell>
        <mxCell id="75" style="shape=tableRow;horizontal=0;startSize=0;swimlaneHead=0;swimlaneBody=0;fillColor=none;collapsible=0;dropTarget=0;points=[[0,0.5],[1,0.5]];portConstraint=eastwest;top=0;left=0;right=0;bottom=0;" vertex="1" parent="66">
          <mxGeometry y="142" width="215" height="47" as="geometry" />
        </mxCell>
        <mxCell id="76" value="string" style="shape=partialRectangle;connectable=0;fillColor=none;top=0;left=0;bottom=0;right=0;align=left;spacingLeft=2;overflow=hidden;fontSize=11;" vertex="1" parent="75">
          <mxGeometry width="36" height="47" as="geometry" />
        </mxCell>
        <mxCell id="77" value="color" style="shape=partialRectangle;connectable=0;fillColor=none;top=0;left=0;bottom=0;right=0;align=left;spacingLeft=2;overflow=hidden;fontSize=11;" vertex="1" parent="75">
          <mxGeometry width="157" height="47" as="geometry" />
        </mxCell>
        <mxCell id="78" value="" style="shape=partialRectangle;connectable=0;fillColor=none;top=0;left=0;bottom=0;right=0;align=left;spacingLeft=2;overflow=hidden;fontSize=11;" vertex="1" parent="75">
          <mxGeometry width="22" height="47" as="geometry" />
        </mxCell>
        <mxCell id="79" style="shape=tableRow;horizontal=0;startSize=0;swimlaneHead=0;swimlaneBody=0;fillColor=none;collapsible=0;dropTarget=0;points=[[0,0.5],[1,0.5]];portConstraint=eastwest;top=0;left=0;right=0;bottom=0;" vertex="1" parent="66">
          <mxGeometry y="189" width="215" height="47" as="geometry" />
        </mxCell>
        <mxCell id="80" value="float" style="shape=partialRectangle;connectable=0;fillColor=none;top=0;left=0;bottom=0;right=0;align=left;spacingLeft=2;overflow=hidden;fontSize=11;" vertex="1" parent="79">
          <mxGeometry width="36" height="47" as="geometry" />
        </mxCell>
        <mxCell id="81" value="costo" style="shape=partialRectangle;connectable=0;fillColor=none;top=0;left=0;bottom=0;right=0;align=left;spacingLeft=2;overflow=hidden;fontSize=11;" vertex="1" parent="79">
          <mxGeometry width="157" height="47" as="geometry" />
        </mxCell>
        <mxCell id="82" value="" style="shape=partialRectangle;connectable=0;fillColor=none;top=0;left=0;bottom=0;right=0;align=left;spacingLeft=2;overflow=hidden;fontSize=11;" vertex="1" parent="79">
          <mxGeometry width="22" height="47" as="geometry" />
        </mxCell>
        <mxCell id="83" value="FÃBRICA" style="shape=table;startSize=25;container=1;collapsible=0;childLayout=tableLayout;fixedRows=1;rowLines=1;fontStyle=1;align=center;resizeLast=1;" vertex="1" parent="1">
          <mxGeometry x="937" y="51" width="188" height="171" as="geometry" />
        </mxCell>
        <mxCell id="84" style="shape=tableRow;horizontal=0;startSize=0;swimlaneHead=0;swimlaneBody=0;fillColor=none;collapsible=0;dropTarget=0;points=[[0,0.5],[1,0.5]];portConstraint=eastwest;top=0;left=0;right=0;bottom=0;" vertex="1" parent="83">
          <mxGeometry y="49" width="188" height="49" as="geometry" />
        </mxCell>
        <mxCell id="85" value="string" style="shape=partialRectangle;connectable=0;fillColor=none;top=0;left=0;bottom=0;right=0;align=left;spacingLeft=2;overflow=hidden;fontSize=11;" vertex="1" parent="84">
          <mxGeometry width="36" height="49" as="geometry" />
        </mxCell>
        <mxCell id="86" value="CUIT" style="shape=partialRectangle;connectable=0;fillColor=none;top=0;left=0;bottom=0;right=0;align=left;spacingLeft=2;overflow=hidden;fontSize=11;" vertex="1" parent="84">
          <mxGeometry width="130" height="49" as="geometry" />
        </mxCell>
        <mxCell id="87" value="PK" style="shape=partialRectangle;connectable=0;fillColor=none;top=0;left=0;bottom=0;right=0;align=left;spacingLeft=2;overflow=hidden;fontSize=11;" vertex="1" parent="84">
          <mxGeometry width="22" height="49" as="geometry" />
        </mxCell>
        <mxCell id="88" style="shape=tableRow;horizontal=0;startSize=0;swimlaneHead=0;swimlaneBody=0;fillColor=none;collapsible=0;dropTarget=0;points=[[0,0.5],[1,0.5]];portConstraint=eastwest;top=0;left=0;right=0;bottom=0;" vertex="1" parent="83">
          <mxGeometry y="97" width="188" height="49" as="geometry" />
        </mxCell>
        <mxCell id="89" value="string" style="shape=partialRectangle;connectable=0;fillColor=none;top=0;left=0;bottom=0;right=0;align=left;spacingLeft=2;overflow=hidden;fontSize=11;" vertex="1" parent="88">
          <mxGeometry width="36" height="49" as="geometry" />
        </mxCell>
        <mxCell id="90" value="nombre" style="shape=partialRectangle;connectable=0;fillColor=none;top=0;left=0;bottom=0;right=0;align=left;spacingLeft=2;overflow=hidden;fontSize=11;" vertex="1" parent="88">
          <mxGeometry width="130" height="49" as="geometry" />
        </mxCell>
        <mxCell id="91" value="" style="shape=partialRectangle;connectable=0;fillColor=none;top=0;left=0;bottom=0;right=0;align=left;spacingLeft=2;overflow=hidden;fontSize=11;" vertex="1" parent="88">
          <mxGeometry width="22" height="49" as="geometry" />
        </mxCell>
        <mxCell id="92" style="shape=tableRow;horizontal=0;startSize=0;swimlaneHead=0;swimlaneBody=0;fillColor=none;collapsible=0;dropTarget=0;points=[[0,0.5],[1,0.5]];portConstraint=eastwest;top=0;left=0;right=0;bottom=0;" vertex="1" parent="83">
          <mxGeometry y="146" width="188" height="49" as="geometry" />
        </mxCell>
        <mxCell id="93" value="string" style="shape=partialRectangle;connectable=0;fillColor=none;top=0;left=0;bottom=0;right=0;align=left;spacingLeft=2;overflow=hidden;fontSize=11;" vertex="1" parent="92">
          <mxGeometry width="36" height="49" as="geometry" />
        </mxCell>
        <mxCell id="94" value="paÃ­s" style="shape=partialRectangle;connectable=0;fillColor=none;top=0;left=0;bottom=0;right=0;align=left;spacingLeft=2;overflow=hidden;fontSize=11;" vertex="1" parent="92">
          <mxGeometry width="130" height="49" as="geometry" />
        </mxCell>
        <mxCell id="95" value="" style="shape=partialRectangle;connectable=0;fillColor=none;top=0;left=0;bottom=0;right=0;align=left;spacingLeft=2;overflow=hidden;fontSize=11;" vertex="1" parent="92">
          <mxGeometry width="22" height="49" as="geometry" />
        </mxCell>
        <mxCell id="96" value="TENER" style="curved=1;startArrow=ERmandOne;startSize=10;;endArrow=ERzeroToMany;endSize=10;;exitX=0.38;exitY=1;entryX=0.5;entryY=0;" edge="1" parent="1" source="2" target="23">
          <mxGeometry relative="1" as="geometry">
            <Array as="points">
              <mxPoint x="139" y="316" />
            </Array>
          </mxGeometry>
        </mxCell>
        <mxCell id="97" value="COMPRAR" style="curved=1;startArrow=ERmandOne;startSize=10;;endArrow=ERzeroToMany;endSize=10;;exitX=0.9;exitY=1;entryX=0;entryY=0.25;" edge="1" parent="1" source="2" target="66">
          <mxGeometry relative="1" as="geometry">
            <Array as="points">
              <mxPoint x="324" y="316" />
            </Array>
          </mxGeometry>
        </mxCell>
        <mxCell id="98" value="TRABAJAR" style="curved=1;startArrow=ERmandOne;startSize=10;;endArrow=ERzeroToMany;endSize=10;;exitX=1;exitY=0.78;entryX=0.5;entryY=0;" edge="1" parent="1" source="36" target="49">
          <mxGeometry relative="1" as="geometry">
            <Array as="points">
              <mxPoint x="1079" y="316" />
            </Array>
          </mxGeometry>
        </mxCell>
        <mxCell id="99" value="OFERTAR" style="curved=1;startArrow=ERmandOne;startSize=10;;endArrow=ERzeroToMany;endSize=10;;exitX=0.09;exitY=1;entryX=0.09;entryY=0;" edge="1" parent="1" source="36" target="66">
          <mxGeometry relative="1" as="geometry">
            <Array as="points">
              <mxPoint x="517" y="316" />
            </Array>
          </mxGeometry>
        </mxCell>
        <mxCell id="100" value="PROVEER" style="curved=1;startArrow=ERmandOne;startSize=10;;endArrow=ERzeroToMany;endSize=10;;exitX=0.05;exitY=1;entryX=1;entryY=0.11;" edge="1" parent="1" source="83" target="66">
          <mxGeometry relative="1" as="geometry">
            <Array as="points">
              <mxPoint x="854" y="316" />
            </Array>
          </mxGeometry>
        </mxCell>
      </root>
    </mxGraphModel>
  </diagram>
</mxfile>
